<?xml version="1.0" standalone="no"?>
<!DOCTYPE svg PUBLIC "-//W3C//DTD SVG 20010904//EN"
 "http://www.w3.org/TR/2001/REC-SVG-20010904/DTD/svg10.dtd">
<svg version="1.0" xmlns="http://www.w3.org/2000/svg"
 width="181.000000pt" height="197.000000pt" viewBox="0 0 181.000000 197.000000"
 preserveAspectRatio="xMidYMid meet">
<metadata>
Created by potrace 1.12, written by Peter Selinger 2001-2015
</metadata>
<g transform="translate(0.000000,197.000000) scale(0.100000,-0.100000)"
fill="#000000" stroke="none">
<path d="M0 985 l0 -985 905 0 905 0 0 985 0 985 -905 0 -905 0 0 -985z m1482
740 l307 -229 1 -602 0 -602 -67 -16 c-550 -123 -1086 -235 -1096 -229 -8 4
-150 109 -315 233 l-302 224 0 602 0 603 73 16 c838 186 1055 233 1072 231 11
-1 158 -105 327 -231z"/>
<path d="M610 1819 c-294 -65 -542 -119 -550 -121 -17 -4 568 -442 590 -442 8
0 124 24 258 54 l242 53 0 288 c0 159 -1 289 -2 288 -2 -1 -244 -55 -538 -120z"/>
<path d="M1170 1650 c0 -154 2 -280 6 -280 6 0 553 119 568 123 5 2 -122 101
-283 220 l-291 216 0 -279z"/>
<path d="M30 1101 l0 -578 263 58 c144 32 279 62 300 65 l37 7 0 291 -1 291
-299 222 -300 223 0 -579z"/>
<path d="M1468 1412 l-298 -66 0 -291 1 -290 299 -222 300 -223 0 580 c0 319
-1 579 -2 579 -2 -1 -137 -31 -300 -67z"/>
<path d="M914 1290 c-116 -26 -223 -50 -237 -54 l-27 -6 0 -286 0 -286 24 6
c14 3 118 26 233 51 114 25 216 48 226 51 16 5 17 28 17 290 0 221 -3 284 -12
283 -7 -1 -108 -23 -224 -49z"/>
<path d="M898 692 l-248 -55 0 -288 c0 -226 3 -287 13 -284 6 3 251 57 542
120 292 64 534 117 539 118 9 3 -568 436 -588 442 -6 1 -122 -22 -258 -53z"/>
<path d="M335 569 c-143 -32 -267 -60 -275 -61 -8 -2 117 -101 278 -220 l292
-217 0 279 c0 260 -1 280 -17 279 -10 -1 -135 -28 -278 -60z"/>
</g>
</svg>
